<svg xmlns="http://www.w3.org/2000/svg" xmlns:xlink="http://www.w3.org/1999/xlink" width="500" zoomAndPan="magnify" viewBox="0 0 375 374.999991" height="500" preserveAspectRatio="xMidYMid meet" version="1.0"><path fill="#fffacd" d="M 68.847656 183.984375 L 70.3125 184.277344 C 72.363281 184.863281 74.707031 185.15625 76.757812 185.15625 C 80.566406 185.15625 84.667969 183.984375 88.183594 182.226562 C 94.042969 178.710938 98.144531 173.144531 99.902344 166.113281 L 103.125 153.515625 C 106.640625 139.746094 99.023438 126.269531 86.132812 122.460938 L 84.960938 122.167969 C 78.808594 120.410156 72.65625 121.289062 67.089844 124.21875 C 61.230469 127.734375 57.128906 133.300781 55.371094 140.332031 L 52.148438 152.929688 C 48.632812 166.699219 55.957031 180.175781 68.847656 183.984375 Z M 68.847656 183.984375 " fill-opacity="1" fill-rule="nonzero"/><path fill="#fffacd" d="M 271.875 153.515625 L 275.097656 166.113281 C 276.855469 173.144531 280.957031 178.710938 286.816406 182.226562 C 290.332031 184.277344 294.140625 185.15625 298.242188 185.15625 C 300.292969 185.15625 302.636719 184.863281 304.6875 184.277344 L 306.152344 183.984375 C 319.042969 180.175781 326.367188 166.699219 323.144531 152.929688 L 319.921875 140.332031 C 318.164062 133.300781 314.0625 127.734375 308.203125 124.21875 C 302.636719 120.996094 296.484375 120.410156 290.332031 122.167969 L 288.867188 122.460938 C 275.683594 126.269531 268.359375 139.746094 271.875 153.515625 Z M 271.875 153.515625 " fill-opacity="1" fill-rule="nonzero"/><path fill="#fffacd" d="M 375 368.847656 L 375 327.539062 C 375 322.851562 372.65625 318.75 369.140625 316.113281 C 371.777344 312.597656 373.535156 307.910156 373.535156 303.222656 C 373.535156 302.636719 373.535156 302.34375 373.242188 301.757812 L 350.390625 206.25 C 347.460938 194.238281 335.742188 186.328125 323.4375 188.378906 L 300.292969 192.1875 C 293.847656 193.359375 287.988281 197.167969 284.179688 202.734375 C 284.179688 203.027344 283.886719 203.320312 283.886719 203.320312 L 267.480469 225.292969 L 242.871094 225.292969 C 237.890625 225.292969 232.910156 227.34375 229.6875 231.152344 C 226.171875 234.960938 224.707031 239.941406 225.292969 244.921875 C 225.585938 246.386719 225.878906 247.558594 226.171875 248.730469 L 148.242188 248.730469 C 148.828125 247.558594 149.121094 246.09375 149.121094 244.921875 C 149.707031 239.941406 148.242188 234.960938 144.726562 231.152344 C 141.210938 227.34375 136.523438 225.292969 131.542969 225.292969 L 106.933594 225.292969 L 90.527344 203.320312 C 90.527344 203.027344 90.234375 202.734375 90.234375 202.734375 C 86.71875 197.167969 80.859375 193.359375 74.121094 192.1875 L 50.976562 188.378906 C 38.671875 186.328125 26.953125 194.238281 24.023438 206.25 L 1.757812 301.757812 C 1.757812 302.34375 1.464844 302.636719 1.464844 303.222656 C 1.464844 308.203125 2.929688 312.597656 5.859375 316.113281 C 2.34375 318.457031 0 322.851562 0 327.539062 L 0 369.140625 C 0 372.363281 2.636719 375 5.859375 375 L 369.140625 375 C 372.363281 375 375 372.363281 375 369.140625 C 375 369.140625 375 368.847656 375 368.847656 Z M 82.03125 363.28125 L 82.03125 324.609375 L 96.386719 363.28125 Z M 137.695312 244.335938 C 137.402344 247.265625 134.765625 249.609375 131.542969 249.609375 L 91.40625 249.609375 L 57.421875 220.898438 C 55.078125 218.847656 51.269531 219.140625 49.21875 221.484375 C 47.167969 223.828125 47.460938 227.636719 49.804688 229.6875 L 72.949219 249.316406 L 66.210938 272.753906 C 65.332031 275.390625 66.503906 278.027344 69.140625 279.492188 L 99.902344 296.484375 C 103.710938 298.535156 106.640625 301.757812 108.398438 305.566406 C 110.15625 310.839844 112.207031 316.40625 113.964844 321.679688 L 113.964844 292.96875 C 111.621094 290.332031 108.691406 287.988281 105.46875 285.9375 L 79.101562 271.582031 L 82.910156 257.519531 L 85.546875 259.863281 C 86.71875 260.742188 87.890625 261.328125 89.355469 261.328125 L 109.277344 261.328125 L 109.277344 278.90625 C 109.277344 282.128906 111.914062 284.765625 115.136719 284.765625 L 125.976562 284.765625 L 125.976562 363.28125 L 108.691406 363.28125 L 91.699219 316.992188 C 90.820312 314.648438 88.769531 313.183594 86.132812 313.183594 L 22.851562 313.183594 C 17.578125 313.183594 13.476562 309.082031 13.183594 303.808594 L 35.742188 209.179688 C 37.207031 203.027344 43.066406 199.21875 49.21875 200.390625 L 72.363281 204.199219 C 74.707031 204.492188 76.757812 205.664062 78.222656 207.128906 L 99.316406 235.546875 C 100.488281 237.011719 102.246094 237.890625 104.003906 237.890625 L 131.542969 237.890625 C 133.300781 237.890625 135.058594 238.476562 136.230469 239.941406 C 137.402344 240.820312 137.695312 242.578125 137.695312 244.335938 Z M 237.304688 363.28125 L 137.695312 363.28125 L 137.695312 284.472656 L 237.304688 284.472656 Z M 292.96875 363.28125 L 278.613281 363.28125 L 292.96875 324.609375 Z M 352.148438 313.183594 L 288.867188 313.183594 C 286.523438 313.183594 284.179688 314.648438 283.300781 316.992188 L 266.015625 363.28125 L 249.023438 363.28125 L 249.023438 284.472656 L 259.863281 284.472656 C 263.085938 284.472656 265.722656 281.835938 265.722656 278.613281 L 265.722656 261.035156 L 285.644531 261.035156 C 287.109375 261.035156 288.28125 260.449219 289.453125 259.570312 L 292.089844 257.226562 L 296.191406 271.289062 L 262.5 290.917969 C 261.914062 291.210938 261.328125 291.796875 261.035156 292.089844 L 261.035156 319.042969 C 262.5 314.355469 264.257812 309.375 266.015625 304.101562 C 266.601562 302.636719 267.480469 301.757812 268.652344 300.878906 L 306.152344 278.90625 C 308.496094 277.441406 309.667969 274.804688 308.789062 272.167969 L 302.050781 248.730469 L 325.195312 229.101562 C 327.539062 227.050781 327.832031 223.242188 325.78125 220.898438 C 323.730469 218.554688 319.921875 218.261719 317.578125 220.3125 L 283.59375 249.023438 L 243.75 249.023438 C 240.820312 249.023438 238.183594 246.679688 237.597656 243.75 C 237.304688 241.992188 237.890625 240.234375 239.0625 239.0625 C 240.234375 237.890625 241.992188 237.011719 243.75 237.011719 L 271.289062 237.011719 C 273.046875 237.011719 274.804688 236.132812 275.976562 234.667969 L 297.070312 206.25 C 298.828125 204.785156 300.585938 203.613281 302.929688 203.320312 L 326.074219 199.511719 C 332.226562 198.339844 338.085938 202.441406 339.550781 208.300781 L 362.109375 302.929688 C 361.523438 309.082031 357.128906 313.183594 352.148438 313.183594 Z M 352.148438 313.183594 " fill-opacity="1" fill-rule="nonzero"/><path fill="#fffacd" d="M 158.203125 52.441406 L 158.203125 94.628906 C 158.203125 104.296875 166.113281 112.207031 175.78125 112.207031 L 221.777344 112.207031 L 246.972656 138.28125 C 248.144531 139.453125 249.609375 140.039062 251.074219 140.039062 C 251.660156 140.039062 252.246094 140.039062 253.125 139.746094 C 255.175781 138.867188 256.933594 137.109375 256.933594 134.765625 L 258.691406 115.429688 L 269.53125 115.429688 C 279.199219 115.429688 287.109375 107.519531 287.109375 97.851562 L 287.109375 52.441406 C 287.109375 42.773438 279.199219 34.863281 269.53125 34.863281 L 175.78125 34.863281 C 166.113281 35.15625 158.203125 42.773438 158.203125 52.441406 Z M 158.203125 52.441406 " fill-opacity="1" fill-rule="nonzero"/><path fill="#fffacd" d="M 93.75 80.566406 L 104.589844 80.566406 L 106.347656 99.902344 C 106.640625 102.246094 108.105469 104.003906 110.15625 104.882812 C 110.742188 105.175781 111.328125 105.175781 112.207031 105.175781 C 113.671875 105.175781 115.429688 104.589844 116.308594 103.417969 L 141.503906 77.34375 L 146.484375 77.34375 L 146.484375 52.734375 C 146.484375 36.621094 159.667969 23.4375 175.78125 23.4375 L 205.078125 23.4375 L 205.078125 17.578125 C 205.078125 7.910156 197.167969 0 187.5 0 L 93.75 0 C 84.082031 0 76.171875 7.910156 76.171875 17.578125 L 76.171875 62.988281 C 76.171875 72.65625 84.082031 80.566406 93.75 80.566406 Z M 93.75 80.566406 " fill-opacity="1" fill-rule="nonzero"/></svg>