<svg width="16" height="19" viewBox="0 0 16 19" fill="none" xmlns="http://www.w3.org/2000/svg">
<path id="Vector" d="M14.2857 8.3125H13.4286V5.64062C13.4286 2.53086 10.9929 0 8 0C5.00714 0 2.57143 2.53086 2.57143 5.64062V8.3125H1.71429C0.767857 8.3125 0 9.11035 0 10.0938V17.2188C0 18.2021 0.767857 19 1.71429 19H14.2857C15.2321 19 16 18.2021 16 17.2188V10.0938C16 9.11035 15.2321 8.3125 14.2857 8.3125ZM10.5714 8.3125H5.42857V5.64062C5.42857 4.16738 6.58214 2.96875 8 2.96875C9.41786 2.96875 10.5714 4.16738 10.5714 5.64062V8.3125Z" fill="#EBEBEB"/>
</svg>
